<?xml version="1.0" encoding="UTF-8" standalone="no"?>
<svg width="310px" height="76px" viewBox="0 0 310 76" version="1.1" xmlns="http://www.w3.org/2000/svg" xmlns:xlink="http://www.w3.org/1999/xlink">
    <!-- Generator: Sketch 3.6.1 (26313) - http://www.bohemiancoding.com/sketch -->
    <title>Page 1</title>
    <desc>Created with Sketch.</desc>
    <defs></defs>
    <g id="Page-1" stroke="none" stroke-width="1" fill="none" fill-rule="evenodd">
        <g transform="translate(0.000000, -1.000000)" fill="#1B817D">
            <path d="M0.6426,75.638 L0.6546,75.65 L10.5186,75.65 L11.1736,74.995 L11.1736,72.803 L0.6426,75.638 Z" id="Fill-1"></path>
            <path d="M26.2161,68.7539 L28.7001,75.2119 L29.3361,75.6499 L41.8031,75.6499 L42.3701,74.8009 L38.5101,65.4459 L26.2161,68.7539 Z" id="Fill-2"></path>
            <path d="M26.703,1.7354 L26.088,2.1154 L12.531,29.2324 L11.174,28.9114 L11.174,2.3904 L10.518,1.7354 L0.654,1.7354 L0,2.3904 L0,73.1064 L11.174,59.1434 L11.174,51.8474 L16,42.1934 L18.836,49.5664 L27.493,38.7504 L24.241,30.8714 L39.689,2.6234 L39.163,1.7354 L26.703,1.7354 Z" id="Fill-3"></path>
            <path d="M11.1739,61.4355 L1.0929,74.0335 L11.1739,71.3195 L11.1739,61.4355 Z" id="Fill-4"></path>
            <path d="M25.6993,67.4102 L37.9593,64.1112 L32.7863,51.5782 L28.1173,40.2642 L19.4323,51.1172 L24.1043,63.2652 L25.6993,67.4102 Z" id="Fill-5"></path>
            <path d="M56.5596,4.7246 L47.9216,15.5146 L56.1846,15.5146 L56.8396,14.8596 L56.8396,5.0046 L56.5596,4.7246 Z" id="Fill-6"></path>
            <path d="M46.1914,15.3849 L55.0234,4.3499 L46.3214,4.3499 L45.6664,5.0049 L45.6664,14.8599 L46.1914,15.3849 Z" id="Fill-7"></path>
            <path d="M56.1846,22.6494 L46.3216,22.6494 L45.6656,23.3034 L45.6656,62.0364 L56.8396,59.0284 L56.8396,23.3034 L56.1846,22.6494 Z" id="Fill-8"></path>
            <path d="M45.666,63.5186 L45.666,74.9866 L46.321,75.6416 L56.184,75.6416 L56.84,74.9866 L56.84,60.5116 L45.666,63.5186 Z" id="Fill-9"></path>
            <g id="Group-62" transform="translate(66.000000, 0.376000)">
                <path d="M17.4815,30.8242 C18.9205,30.8242 19.8775,31.1862 20.3225,31.9012 C20.8005,32.6712 21.0445,33.9472 21.0445,35.6942 L21.0445,35.7022 L21.0445,45.9242 L22.9935,49.9972 L32.2175,47.5142 L32.2175,30.3512 C32.2175,27.9052 31.4875,25.8072 30.0485,24.1152 C28.5945,22.4042 26.6745,21.5372 24.3425,21.5372 C22.3475,21.5372 20.4435,21.8822 18.6795,22.5622 C16.9265,23.2392 15.5295,23.9702 14.5265,24.7352 C13.9555,25.1742 13.2695,25.7382 12.4895,26.4132 L11.9335,26.8942 L14.2195,31.6682 C14.4425,31.5632 14.6785,31.4572 14.9425,31.3472 C15.7815,31.0002 16.6345,30.8242 17.4815,30.8242" id="Fill-10"></path>
                <path d="M11.3037,22.9277 L10.6487,22.2737 L9.7217,22.2737 L11.3037,25.5777 L11.3037,22.9277 Z" id="Fill-12"></path>
                <path d="M0.1299,57.6509 L0.1299,74.6099 L0.7849,75.2659 L10.6489,75.2659 L11.3039,74.6099 L11.3039,54.6289 L0.1299,57.6509 Z" id="Fill-14"></path>
                <path d="M0.7852,22.2734 L0.1302,22.9274 L0.1302,56.1674 L11.3032,53.1444 L11.3032,33.7034 L11.3032,33.6964 L11.5652,33.4804 C12.1572,32.9954 12.6232,32.6304 12.9702,32.3774 L8.1342,22.2734 L0.7852,22.2734 Z" id="Fill-16"></path>
                <path d="M23.6221,51.3115 L32.2181,69.2705 L32.2181,48.9975 L23.6221,51.3115 Z" id="Fill-18"></path>
                <path d="M21.044,49.2451 L21.044,50.5221 L21.586,50.3761 L21.044,49.2451 Z" id="Fill-20"></path>
                <path d="M22.2139,51.6904 L21.0439,52.0054 L21.0439,74.6104 L21.6989,75.2654 L31.5629,75.2654 L32.2179,74.6104 L32.2179,72.5904 L22.2139,51.6904 Z" id="Fill-22"></path>
                <path d="M62.1045,25.6992 C61.9745,25.5742 61.8525,25.4582 61.7375,25.3502 C61.1665,24.8202 60.4255,24.2302 59.4755,23.5452 C58.5225,22.8592 57.5045,22.3452 56.4515,22.0222 C55.3995,21.7012 54.2575,21.5372 53.0585,21.5372 C51.5295,21.5372 50.1155,21.7642 48.8525,22.2122 C47.5905,22.6612 46.4965,23.2732 45.5985,24.0322 C44.7005,24.7892 43.9035,25.7612 43.2305,26.9252 C42.5675,28.0722 42.0285,29.2772 41.6285,30.5062 C41.2285,31.7332 40.8945,33.1592 40.6345,34.7462 C40.3765,36.3262 40.1885,37.8682 40.0795,39.3302 C39.9695,40.7972 39.8865,42.4532 39.8335,44.2502 C39.8315,44.3582 39.8305,44.4542 39.8295,44.5592 C39.8265,44.8782 39.8235,45.1832 39.8205,45.4862 L50.8865,42.4892 C50.8865,42.4592 50.8875,42.4272 50.8875,42.3972 C50.8885,42.3602 50.8885,42.3212 50.8895,42.2842 C50.8995,41.5522 50.9115,40.8022 50.9255,40.0322 C50.9515,38.6662 51.0465,37.4672 51.2065,36.4652 C51.3665,35.4682 51.6215,34.4882 51.9645,33.5502 C52.2965,32.6452 52.7755,31.9782 53.4305,31.5142 C54.0815,31.0502 54.8685,30.8242 55.8365,30.8242 C58.4155,30.8242 60.8065,31.4032 62.9415,32.5452 L63.3205,32.7472 L63.3205,32.7562 L63.3205,39.1412 L74.4935,36.1342 L74.4935,26.1432 L63.3205,22.7902 L63.3205,26.8722 L63.3205,26.8792 L62.1045,25.6992 Z" id="Fill-24"></path>
                <path d="M74.4932,24.6479 L74.4932,2.0559 L73.8392,1.4009 L63.9752,1.4009 L63.3202,2.0559 L63.3202,21.2949 L74.4932,24.6479 Z" id="Fill-26"></path>
                <path d="M63.3203,40.6245 L63.3203,65.1935 L63.3203,65.2015 L62.8523,65.3745 C60.4533,66.2625 58.0933,66.7135 55.8363,66.7135 C54.9283,66.7135 54.1463,66.4045 53.5103,65.7915 C52.8523,65.1615 52.3413,64.2315 51.9933,63.0315 C51.6323,61.7845 51.3673,60.4785 51.2093,59.1465 C51.0473,57.7985 50.9513,56.2395 50.9243,54.5105 C50.9123,54.1125 50.9023,53.6915 50.8923,53.2585 C50.8923,53.2405 50.8923,53.2225 50.8913,53.2045 C50.8903,53.1265 50.8883,53.0465 50.8863,52.9675 C50.8853,52.9175 50.8853,52.8695 50.8833,52.8195 C50.8793,52.5745 50.8753,52.3215 50.8713,52.0655 C50.8673,51.7495 50.8623,51.4255 50.8593,51.0935 C50.8573,50.9015 50.8553,50.7095 50.8533,50.5125 L50.8533,50.4705 C50.8453,49.4175 50.8433,48.2885 50.8463,47.0905 L50.8463,46.9525 C50.8473,46.9115 50.8473,46.8675 50.8473,46.8265 C50.8513,45.9165 50.8583,44.9685 50.8693,43.9785 L39.8073,46.9745 L39.8073,46.9865 C39.7953,48.6355 39.7903,49.9975 39.7943,51.0885 L39.7943,51.1515 L39.7943,51.2705 C39.7953,51.3765 39.7953,51.4755 39.7963,51.5745 C39.7973,51.7185 39.7983,51.8485 39.7993,51.9815 C39.8003,52.0255 39.8003,52.0735 39.8013,52.1165 C39.8013,52.2235 39.8033,52.3235 39.8043,52.4225 C39.8073,52.6515 39.8103,52.8675 39.8153,53.0555 L39.8153,53.0675 C39.8203,53.2855 39.8263,53.4745 39.8333,53.6365 C39.9423,56.4235 40.2343,59.0595 40.6973,61.4745 C41.1633,63.8985 41.8793,66.2645 42.8223,68.5095 C43.7823,70.7915 45.1683,72.6275 46.9393,73.9675 C48.7253,75.3165 50.8393,75.9995 53.2213,75.9995 C55.4023,75.9995 57.3623,75.4735 59.0473,74.4355 C60.0783,73.8005 61.1153,73.0275 62.1323,72.1375 L63.3203,71.0975 L63.3203,71.1055 L63.3203,74.6105 L63.9753,75.2655 L73.8393,75.2655 L74.4933,74.6105 L74.4933,37.6175 L63.3203,40.6245 Z" id="Fill-28"></path>
                <path d="M114.1348,38.04 L104.2498,38.04 L103.5948,38.695 L103.5948,45.855 L104.2498,46.51 L114.0518,46.51 L114.0518,46.518 L114.0518,48.766 L114.0518,48.773 C114.0518,50.845 113.9768,52.717 113.8278,54.336 C113.6808,55.943 113.3888,57.587 112.9618,59.221 C112.5368,60.834 111.9568,62.177 111.2368,63.212 C110.5228,64.236 109.5418,65.085 108.3198,65.734 C107.0978,66.385 105.6288,66.714 103.9528,66.714 C102.5338,66.714 101.2668,66.496 100.1858,66.065 C99.1138,65.639 98.2108,65.013 97.5038,64.203 C96.7808,63.374 96.1658,62.433 95.6788,61.404 C95.1908,60.378 94.8168,59.137 94.5648,57.717 C94.3088,56.278 94.1238,54.848 94.0168,53.463 C93.9088,52.079 93.8558,50.501 93.8558,48.773 L93.8558,48.766 L93.8558,32.406 L82.6818,35.426 L82.6818,46.397 C82.6818,50.045 82.8618,53.317 83.2158,56.121 C83.5708,58.939 84.2238,61.659 85.1538,64.205 C86.0918,66.772 87.3678,68.915 88.9478,70.579 C90.5308,72.245 92.6028,73.58 95.1038,74.546 C97.5978,75.512 100.5748,76 103.9528,76 C108.2268,76 111.4868,73.895 113.6448,69.741 L114.4238,68.24 L116.6118,74.801 L117.2558,75.266 L124.5698,75.266 L125.2258,74.61 L125.2258,41.37 L114.1348,38.04 Z" id="Fill-30"></path>
                <path d="M119.1548,25.5957 L123.9578,25.5957 L124.6118,24.9417 C124.6118,24.6437 124.6088,24.3777 124.6048,24.1287 L119.1548,25.5957 Z" id="Fill-32"></path>
                <path d="M92.0459,31.4116 L82.6819,28.6016 L82.6819,33.9426 L92.0459,31.4116 Z" id="Fill-34"></path>
                <path d="M124.0899,17.9223 C124.0829,17.8813 124.0739,17.8443 124.0679,17.8033 C123.9569,17.1083 123.8329,16.4303 123.6889,15.7793 C123.5339,15.0823 123.3619,14.4093 123.1679,13.7653 C122.3669,11.1063 121.1649,8.7513 119.5929,6.7643 C118.0089,4.7643 115.9119,3.2223 113.3609,2.1823 C110.8229,1.1483 107.7949,0.6243 104.3619,0.6243 C90.1809,0.6243 82.9059,9.5463 82.7009,27.1103 L93.8559,30.4593 L93.8559,25.2453 L93.8559,25.2383 C93.8559,22.8993 94.0179,20.8263 94.3399,19.0723 C94.6579,17.3333 95.2029,15.7183 95.9589,14.2733 C96.7069,12.8413 97.7539,11.7813 99.1579,11.0323 C100.5569,10.2873 102.3069,9.9103 104.3619,9.9103 C105.8619,9.9103 107.1709,10.1293 108.2519,10.5593 C109.3259,10.9863 110.1949,11.5603 110.8359,12.2633 C111.4809,12.9733 111.9979,13.9123 112.3739,15.0563 C112.7609,16.2283 113.0309,17.4363 113.1759,18.6423 C113.3239,19.8633 113.4119,21.3373 113.4399,23.0203 L113.4399,23.0283 L113.4399,24.9403 L113.9979,25.5003 L124.5509,22.6603 C124.5489,22.6363 124.5469,22.6133 124.5459,22.5893 C124.4669,20.9453 124.3169,19.3853 124.0899,17.9223" id="Fill-36"></path>
                <path d="M124.5703,38.04 L119.1173,38.04 L125.2253,39.874 L125.2253,38.695 L124.5703,38.04 Z" id="Fill-38"></path>
                <path d="M163.0469,56.2568 L153.2659,56.2568 L152.6099,56.9118 L152.6099,58.7898 L152.6099,58.7978 C152.5839,60.0708 152.5039,61.1278 152.3699,61.9498 C152.2379,62.7668 152.0059,63.5918 151.6769,64.4048 C151.3619,65.1848 150.8969,65.7478 150.2519,66.1308 C149.6059,66.5188 148.7609,66.7138 147.7409,66.7138 C146.9309,66.7138 146.2529,66.5318 145.6669,66.1578 C145.0749,65.7798 144.6289,65.2778 144.3019,64.6228 C143.9629,63.9428 143.6689,63.1358 143.4319,62.2238 C143.1929,61.3098 143.0449,60.3368 142.9919,59.3328 C142.9379,58.3008 142.8909,57.2468 142.8499,56.1728 C142.8289,55.6418 142.8209,55.1158 142.8249,54.5978 C142.8279,54.0798 142.8439,53.5708 142.8709,53.0738 L142.8709,49.1308 L142.8709,49.1238 L151.0659,49.1238 L131.7429,43.3248 C131.7279,43.6908 131.7099,44.0488 131.6979,44.4258 C131.6569,45.5688 131.6369,46.7168 131.6359,47.8638 C131.6359,49.0108 131.6559,50.1548 131.6959,51.2908 C131.7509,54.2128 131.9099,56.8008 132.1689,58.9978 C132.4299,61.2038 132.9089,63.4388 133.5919,65.6388 C134.2819,67.8608 135.2019,69.7148 136.3279,71.1458 C137.4609,72.5858 139.0029,73.7698 140.9099,74.6598 C141.8609,75.1038 142.9039,75.4378 144.0279,75.6618 L163.6659,56.8768 L163.0469,56.2568 Z" id="Fill-40"></path>
                <path d="M152.5293,40.3847 L152.5293,43.1787 L152.5293,43.1857 L142.8713,43.1857 L142.8713,43.1787 L142.8713,40.7047 L142.8713,40.6967 C142.8963,39.2587 142.9783,38.0207 143.1123,37.0057 C143.2453,35.9977 143.4813,34.9527 143.8133,33.9027 C144.1313,32.9017 144.6263,32.1277 145.2893,31.6037 C145.9503,31.0797 146.7523,30.8247 147.7413,30.8247 C148.7033,30.8247 149.4863,31.0677 150.1363,31.5667 C150.7913,32.0707 151.2653,32.7887 151.5873,33.7627 C151.9183,34.7677 152.1533,35.7907 152.2873,36.8027 C152.4203,37.8217 152.5023,39.0237 152.5293,40.3777 L152.5293,40.3847 Z M163.5573,40.6587 C163.4073,38.6637 163.1383,36.6097 162.7563,34.5547 C162.3713,32.4747 161.7893,30.6747 161.0273,29.2057 C160.2653,27.7387 159.2983,26.3847 158.1503,25.1817 C156.9863,23.9617 155.5083,23.0377 153.7583,22.4357 C152.0263,21.8387 150.0013,21.5367 147.7413,21.5367 C145.2543,21.5367 143.0423,21.9387 141.1683,22.7297 C139.2883,23.5237 137.7473,24.5927 136.5873,25.9077 C135.4313,27.2147 134.4803,28.9037 133.7603,30.9247 C133.0483,32.9257 132.5403,35.0187 132.2523,37.1457 C132.2423,37.2207 132.2333,37.3007 132.2233,37.3767 C132.1773,37.7307 132.1343,38.0957 132.0943,38.4677 C132.0673,38.7177 132.0413,38.9697 132.0163,39.2277 C132.0013,39.3857 131.9873,39.5497 131.9733,39.7107 C131.9133,40.4007 131.8603,41.1127 131.8163,41.8507 L156.0493,49.1237 L163.1293,49.1237 L163.7843,48.4687 L163.7843,47.5477 C163.7843,44.9757 163.7093,42.6577 163.5573,40.6587 L163.5573,40.6587 Z" id="Fill-42"></path>
                <path d="M145.8339,75.9179 C146.4239,75.9709 147.0319,75.9999 147.6579,75.9999 C152.9429,75.9999 156.9229,74.5169 159.4879,71.5899 C160.4419,70.5009 161.2359,69.2109 161.8709,67.7259 C161.9249,67.5999 161.9679,67.4629 162.0189,67.3349 C162.1669,66.9649 162.3139,66.5939 162.4429,66.2009 C162.5599,65.8449 162.6579,65.4659 162.7599,65.0909 C162.8089,64.9069 162.8669,64.7329 162.9129,64.5449 C163.0319,64.0549 163.1319,63.5449 163.2249,63.0259 C163.2409,62.9379 163.2619,62.8559 163.2769,62.7679 C163.3789,62.1669 163.4629,61.5449 163.5319,60.9039 C163.5329,60.8919 163.5349,60.8809 163.5359,60.8679 C163.6049,60.2109 163.6569,59.5339 163.6909,58.8369 L145.8339,75.9179 Z" id="Fill-44"></path>
                <path d="M190.5913,61.0568 C190.5793,61.1738 190.5673,61.2898 190.5543,61.3998 C190.5323,61.5928 190.5083,61.7798 190.4803,61.9498 C190.3473,62.7668 190.1153,63.5918 189.7873,64.4058 C189.4723,65.1848 189.0073,65.7478 188.3623,66.1308 C187.7163,66.5188 186.8703,66.7138 185.8503,66.7138 C185.0413,66.7138 184.3623,66.5318 183.7763,66.1578 C183.1853,65.7808 182.7393,65.2788 182.4123,64.6228 C182.0723,63.9438 181.7793,63.1358 181.5413,62.2238 C181.3023,61.3098 181.1553,60.3368 181.1023,59.3328 C181.0823,58.9378 181.0673,58.5248 181.0483,58.1238 L169.9353,54.7878 C169.9363,54.8068 169.9373,54.8268 169.9383,54.8458 C169.9573,55.1948 169.9773,55.5368 170.0003,55.8738 C170.0213,56.1778 170.0433,56.4768 170.0663,56.7708 C170.0833,56.9868 170.1003,57.2048 170.1183,57.4148 C170.1673,57.9608 170.2193,58.4928 170.2793,58.9978 C170.5403,61.2038 171.0183,63.4388 171.7033,65.6388 C172.3913,67.8618 173.3123,69.7148 174.4383,71.1458 C175.5703,72.5858 177.1133,73.7698 179.0203,74.6598 C180.9273,75.5498 183.1973,75.9998 185.7693,75.9998 C191.0523,75.9998 195.0323,74.5168 197.5973,71.5898 C197.8943,71.2508 198.1723,70.8888 198.4383,70.5108 C198.4763,70.4568 198.5143,70.4018 198.5523,70.3468 C198.8083,69.9718 199.0513,69.5818 199.2773,69.1698 C199.3063,69.1188 199.3313,69.0628 199.3593,69.0108 C199.5393,68.6728 199.7073,68.3188 199.8683,67.9568 C199.9343,67.8088 200.0013,67.6608 200.0633,67.5078 C200.2203,67.1258 200.3683,66.7338 200.5053,66.3268 C200.5763,66.1138 200.6393,65.8918 200.7053,65.6728 C200.7753,65.4368 200.8433,65.1968 200.9073,64.9538 C200.9753,64.6958 201.0433,64.4388 201.1033,64.1718 C201.1053,64.1628 201.1073,64.1518 201.1093,64.1428 L190.5983,60.9888 C190.5963,61.0118 190.5933,61.0338 190.5913,61.0568" id="Fill-46"></path>
                <path d="M196.2598,25.1816 C195.0958,23.9616 193.6188,23.0386 191.8688,22.4356 C190.1368,21.8386 188.1118,21.5376 185.8508,21.5376 C183.3628,21.5376 181.1528,21.9386 179.2788,22.7296 C177.3988,23.5236 175.8578,24.5926 174.6958,25.9076 C173.5418,27.2146 172.5898,28.9036 171.8698,30.9246 C171.1578,32.9256 170.6508,35.0186 170.3618,37.1456 C170.0758,39.2596 169.8898,41.7096 169.8078,44.4256 C169.7298,46.6166 169.7308,48.8276 169.8018,51.0086 L180.9928,40.3046 C181.0258,39.0356 181.1008,37.9246 181.2228,37.0056 C181.3548,35.9976 181.5908,34.9536 181.9238,33.9026 C182.2398,32.9016 182.7368,32.1276 183.3988,31.6036 C184.0598,31.0796 184.8618,30.8246 185.8508,30.8246 C186.8128,30.8246 187.5968,31.0676 188.2458,31.5666 C188.5848,31.8276 188.8738,32.1486 189.1198,32.5296 L196.5088,25.4616 C196.4248,25.3696 196.3468,25.2726 196.2598,25.1816" id="Fill-48"></path>
                <path d="M201.1573,56.2568 L191.3753,56.2568 L190.7203,56.9118 L190.7203,58.7898 L190.7203,58.7978 C190.7163,59.0078 190.7083,59.2048 190.7003,59.4018 C190.6993,59.4418 190.6983,59.4838 190.6963,59.5228 L201.3933,62.7328 C201.3953,62.7228 201.3973,62.7138 201.3993,62.7038 C201.4833,62.2038 201.5473,61.6798 201.6083,61.1528 C201.6233,61.0168 201.6473,60.8908 201.6613,60.7528 C201.7153,60.2258 201.7483,59.6758 201.7793,59.1238 C201.7883,58.9668 201.8053,58.8188 201.8123,58.6598 L201.8123,56.9118 L201.1573,56.2568 Z" id="Fill-50"></path>
                <path d="M201.669,40.6592 C201.518,38.6642 201.248,36.6092 200.867,34.5552 C200.481,32.4742 199.898,30.6752 199.138,29.2062 C198.904,28.7562 198.648,28.3202 198.374,27.8952 C198.345,27.8502 198.315,27.8062 198.285,27.7622 C198.017,27.3512 197.733,26.9502 197.433,26.5612 L189.741,33.9212 C190.046,34.8752 190.271,35.8442 190.396,36.8032 C190.531,37.8212 190.612,39.0232 190.639,40.3782 L190.639,40.3852 L190.639,43.1792 L190.639,43.1852 L180.982,43.1852 L180.982,43.1792 L180.982,42.2972 L169.854,52.9422 L169.854,52.9552 C169.858,53.0632 169.863,53.1642 169.867,53.2712 L180.981,56.6062 C180.975,56.4602 180.967,56.3202 180.961,56.1732 C180.94,55.6412 180.931,55.1152 180.935,54.5982 C180.938,54.0802 180.953,53.5702 180.981,53.0742 L180.982,49.1242 L201.239,49.1242 L201.895,48.4692 L201.895,47.5482 C201.895,44.9752 201.818,42.6572 201.669,40.6592" id="Fill-52"></path>
                <path d="M208.7344,66.4311 L208.7344,74.6101 L209.3894,75.2661 L219.2534,75.2661 L219.9074,74.6101 L219.9074,69.7851 L208.7344,66.4311 Z" id="Fill-54"></path>
                <path d="M219.9073,3.081 L219.9073,2.015 L219.2533,1.359 L209.3893,1.359 L208.7343,2.015 L208.7343,13.769 L219.9073,3.081 Z" id="Fill-56"></path>
                <path d="M224.6426,50.3994 L231.2476,71.6924 L242.7866,75.1554 L243.2926,74.4444 L231.7496,40.9374 L231.7516,40.9344 L231.7496,40.9284 L243.1456,23.1774 L242.6516,22.2734 L232.7976,22.2734 L232.2236,22.5784 L219.9076,40.7824 L219.9076,40.7754 L219.9076,5.0634 L208.7346,15.7514 L208.7346,64.9354 L219.9076,68.2884 L219.9076,56.7354 L219.9076,56.7274 L224.6426,50.3994 Z" id="Fill-58"></path>
                <path d="M232.208,74.7881 L232.856,75.2661 L238.169,75.2661 L231.759,73.3411 L232.208,74.7881 Z" id="Fill-60"></path>
            </g>
        </g>
    </g>
</svg>