<?xml version="1.0" encoding="utf-8"?>
<!DOCTYPE svg PUBLIC "-//W3C//DTD SVG 1.1//EN" "http://www.w3.org/Graphics/SVG/1.1/DTD/svg11.dtd">
<svg version="1.1" baseProfile="full"
 xmlns="http://www.w3.org/2000/svg"
 xmlns:xlink="http://www.w3.org/1999/xlink"
 xmlns:ev="http://www.w3.org/2001/xml-events" 
  height="14px" 
  width="16px" 
>
<path fill="rgb( 178, 178, 178 )"
 d="M4.173,10.605 C2.24199999999996,8.529 2.27700000000004,5.27399999999989 4.28199999999993,3.25399999999991 C5.10300000000007,2.42700000000013 6.12899999999991,1.9340000000002 7.19599999999991,1.77199999999993 C7.19599999999991,1.77199999999993 7.13599999999997,0 7.13599999999997,0 C5.6389999999999,0.18100000000004 4.19000000000005,0.84900000000016 3.04199999999992,2.00500000000011 C0.35500000000002,4.71300000000019 0.32300000000009,9.08300000000008 2.9369999999999,11.8490000000002 C2.9369999999999,11.8490000000002 1.452,13.346 1.452,13.346 C1.452,13.346 6.154,13.6030000000001 6.154,13.6030000000001 C6.154,13.6030000000001 6.14100000000008,8.62199999999984 6.14100000000008,8.62199999999984 C6.14100000000008,8.62199999999984 4.173,10.605 4.173,10.605 ZM9.84500000000003,0.39699999999993 C9.84500000000003,0.39699999999993 9.85799999999995,5.37699999999995 9.85799999999995,5.37699999999995 C9.85799999999995,5.37699999999995 11.827,3.39399999999978 11.827,3.39399999999978 C13.7570000000001,5.471 13.723,8.72499999999991 11.7180000000001,10.7449999999999 C10.8969999999999,11.5720000000001 9.87100000000009,12.0650000000001 8.80300000000011,12.2269999999999 C8.80300000000011,12.2269999999999 8.86300000000006,14 8.86300000000006,14 C10.3610000000001,13.8180000000002 11.8099999999999,13.1489999999999 12.9570000000001,11.9929999999999 C15.645,9.28600000000006 15.6769999999999,4.91600000000017 13.0619999999999,2.15000000000009 C13.0619999999999,2.15000000000009 14.548,0.65299999999979 14.548,0.65299999999979 C14.548,0.65299999999979 9.84500000000003,0.39699999999993 9.84500000000003,0.39699999999993 Z "/>
</svg>
