<?xml version="1.0" encoding="utf-8"?>
<!DOCTYPE svg PUBLIC "-//W3C//DTD SVG 1.1//EN" "http://www.w3.org/Graphics/SVG/1.1/DTD/svg11.dtd">
<svg version="1.1" baseProfile="full"
 xmlns="http://www.w3.org/2000/svg"
 xmlns:xlink="http://www.w3.org/1999/xlink"
 xmlns:ev="http://www.w3.org/2001/xml-events" 
  height="19px" 
  width="18px" 
>
<path fill="rgb( 178, 178, 178 )"
 d="M9,18.9989999999998 C4.02999999999997,18.9989999999998 0,14.9699999999998 0,10 C0,5.029 4.02999999999997,0.9989999999998 9,0.9989999999998 C13.97,0.9989999999998 18,5.029 18,10 C18,14.9699999999998 13.97,18.9989999999998 9,18.9989999999998 ZM9,2.95600000000013 C5.1099999999999,2.95600000000013 1.9559999999999,6.10899999999992 1.9559999999999,10 C1.9559999999999,13.8890000000001 5.1099999999999,17.0430000000001 9,17.0430000000001 C12.8900000000001,17.0430000000001 16.0429999999999,13.8890000000001 16.0429999999999,10 C16.0429999999999,6.10899999999992 12.8900000000001,2.95600000000013 9,2.95600000000013 ZM8.31500000000005,10.2829999999999 C8.31500000000005,10.2829999999999 8.31500000000005,4.91199999999981 8.31500000000005,4.91199999999981 C8.31500000000005,4.91199999999981 9.68499999999995,4.91199999999981 9.68499999999995,4.91199999999981 C9.68499999999995,4.91199999999981 9.68499999999995,9.71599999999989 9.68499999999995,9.71599999999989 C9.68499999999995,9.71599999999989 12.615,12.6460000000002 12.615,12.6460000000002 C12.615,12.6460000000002 11.646,13.614 11.646,13.614 C11.646,13.614 8.31500000000005,10.2829999999999 8.31500000000005,10.2829999999999 Z "/>
</svg>
