<?xml version="1.0" encoding="utf-8"?>
<!DOCTYPE svg PUBLIC "-//W3C//DTD SVG 1.1//EN" "http://www.w3.org/Graphics/SVG/1.1/DTD/svg11.dtd">
<svg version="1.1" baseProfile="full"
 xmlns="http://www.w3.org/2000/svg"
 xmlns:xlink="http://www.w3.org/1999/xlink"
 xmlns:ev="http://www.w3.org/2001/xml-events" 
  height="12px" 
  width="18px" 
>
<path fill="rgb( 178, 178, 178 )"
 d="M12.6,1.76400000000012 C12.6,1.76400000000012 3.60000000000002,1.76400000000012 3.60000000000002,1.76400000000012 C3.60000000000002,1.76400000000012 3.60000000000002,0 3.60000000000002,0 C3.60000000000002,0 0,2.9989999999998 0,2.9989999999998 C0,2.9989999999998 3.60000000000002,5.82299999999987 3.60000000000002,5.82299999999987 C3.60000000000002,5.82299999999987 3.60000000000002,4.23500000000013 3.60000000000002,4.23500000000013 C3.60000000000002,4.23500000000013 12.6,4.23500000000013 12.6,4.23500000000013 C12.6,4.23500000000013 12.6,1.76400000000012 12.6,1.76400000000012 ZM18,9.17599999999993 C18,9.17599999999993 14.4,6.17599999999993 14.4,6.17599999999993 C14.4,6.17599999999993 14.4,7.9409999999998 14.4,7.9409999999998 C14.4,7.9409999999998 5.39999999999998,7.9409999999998 5.39999999999998,7.9409999999998 C5.39999999999998,7.9409999999998 5.39999999999998,10.4110000000001 5.39999999999998,10.4110000000001 C5.39999999999998,10.4110000000001 14.4,10.4110000000001 14.4,10.4110000000001 C14.4,10.4110000000001 14.4,11.9989999999998 14.4,11.9989999999998 C14.4,11.9989999999998 18,9.17599999999993 18,9.17599999999993 Z "/>
</svg>
